<svg width="11" height="19" viewBox="0 0 11 19" fill="none" xmlns="http://www.w3.org/2000/svg">
<path d="M6.76 18.1001V10.0001H9.84L10.3 6.8401H6.76V4.8201C6.76 4.31343 6.87333 3.9401 7.1 3.7001C7.36667 3.4201 7.84667 3.2801 8.54 3.2801H10.42V0.460098C10.2067 0.433432 9.87333 0.406765 9.42 0.380098C8.83333 0.353432 8.24667 0.340097 7.66 0.340097C6.75333 0.340097 5.95333 0.500097 5.26 0.820099C4.56667 1.1401 4.03 1.61343 3.65 2.2401C3.27 2.86677 3.08 3.6201 3.08 4.5001V6.8401H0V10.0001H3.08V18.1001H6.76Z" fill="white"/>
</svg>
