<svg width="101" height="101" viewBox="0 0 101 101" fill="none" xmlns="http://www.w3.org/2000/svg">
<circle cx="50.0762" cy="50.0762" r="50.0762" fill="#251C31"/>
<g clip-path="url(#clip0_1_93)">
<path d="M73.9126 29.3298L69.5553 78.3727L49.9688 83.8282L30.4363 78.3802L26.0834 29.3298H73.9126Z" fill="#E44D26"/>
<path d="M49.998 79.6581L65.8249 75.2498L69.5483 33.3403H49.998V79.6581Z" fill="#F16529"/>
<path d="M41.5275 45.3723H49.998V39.3564H34.9837L35.1269 40.9704L36.5987 57.5484H49.998V51.5326H42.0747L41.5275 45.3723ZM42.877 60.5564H36.8662L37.705 70.0022L49.9705 73.4229L49.998 73.4154V67.1564L49.9718 67.1634L43.3033 65.3543L42.877 60.5564Z" fill="#EBEBEB"/>
<path d="M30.5334 16H33.5763V19.0204H36.3598V16H39.4029V25.1467H36.36V22.0838H33.5764V25.1467H30.5336L30.5334 16ZM43.4042 19.0333H40.7258V16H49.1277V19.0333H46.4476V25.1467H43.4048V19.0333H43.4042ZM50.4611 16H53.6339L55.5856 19.2139L57.5355 16H60.7096V25.1467H57.6791V20.6131L55.5856 23.8652H55.5331L53.4384 20.6131V25.1467H50.4611V16ZM62.2239 16H65.2677V22.1234H69.5468V25.1467H62.2237V16H62.2239Z" fill="white"/>
<path d="M49.9774 57.5484H57.3506L56.6554 65.3505L49.9772 67.1615V73.4201L62.2524 70.0022L62.3424 68.9858L63.7496 53.148L63.8957 51.5326H49.9774V57.5484ZM49.9774 45.3576V45.3723H64.4405L64.5605 44.0202L64.8335 40.9704L64.9765 39.3564H49.9774V45.3576Z" fill="white"/>
</g>
<defs>
<clipPath id="clip0_1_93">
<rect width="48" height="68" fill="white" transform="translate(26 16)"/>
</clipPath>
</defs>
</svg>
