<svg width="19" height="19" viewBox="0 0 19 19" fill="none" xmlns="http://www.w3.org/2000/svg">
<path d="M0 2.42031C0 1.80698 0.206667 1.30698 0.62 0.920313C1.03333 0.533646 1.58667 0.340313 2.28 0.340313C2.97333 0.340313 3.52667 0.53698 3.94 0.930313C4.35333 1.32365 4.56 1.84031 4.56 2.48031C4.56 3.05365 4.34667 3.53698 3.92 3.93031C3.49333 4.32365 2.94 4.52031 2.26 4.52031H2.24C1.56 4.52031 1.01667 4.32031 0.61 3.92031C0.203333 3.52031 0 3.02031 0 2.42031ZM0.24 18.3203V6.18031H4.28V18.3203H0.24ZM6.52 18.3203H10.58V11.5403C10.58 11.1136 10.6267 10.787 10.72 10.5603C10.88 10.147 11.14 9.79698 11.5 9.51031C11.86 9.22365 12.2933 9.08031 12.8 9.08031C14.16 9.08031 14.84 10.0003 14.84 11.8403V18.3203H18.88V11.3603C18.88 9.54698 18.4567 8.18365 17.61 7.27031C16.7633 6.35698 15.64 5.90031 14.24 5.90031C12.6533 5.90031 11.4333 6.56698 10.58 7.90031V7.94031H10.56L10.58 7.90031V6.18031H6.52C6.54667 6.68698 6.56 7.89365 6.56 9.80031C6.56 10.827 6.55333 12.847 6.54 15.8603L6.52 18.3203Z" fill="white"/>
</svg>
