<svg width="37" height="37" viewBox="0 0 37 37" fill="none" xmlns="http://www.w3.org/2000/svg">
<path d="M6.18401 19.8545C9.1909 19.3391 12.2609 20.3151 14.4182 22.4723C16.5754 24.6295 17.5514 27.6996 17.036 30.7065L15.976 36.8905L0 20.9145L6.18401 19.8545Z" fill="white"/>
<path d="M17.0359 6.184C17.5514 9.19092 16.5753 12.2609 14.4181 14.4181C12.261 16.5754 9.19095 17.5514 6.184 17.036L0 15.9759L15.976 0L17.0359 6.184Z" fill="white"/>
<path d="M30.7065 17.036C27.6995 17.5514 24.6295 16.5754 22.4723 14.4182C20.3151 12.2609 19.339 9.19091 19.8545 6.18401L20.9145 0L36.8905 15.976L30.7065 17.036Z" fill="white"/>
<path d="M19.8545 30.7065C19.3391 27.6996 20.3151 24.6296 22.4723 22.4723C24.6296 20.3151 27.6996 19.3391 30.7065 19.8545L36.8905 20.9145L20.9145 36.8905L19.8545 30.7065Z" fill="white"/>
</svg>
