<svg width="101" height="101" viewBox="0 0 101 101" fill="none" xmlns="http://www.w3.org/2000/svg">
<circle cx="50.0762" cy="50.0762" r="50.0762" fill="#251C31"/>
<path fill-rule="evenodd" clip-rule="evenodd" d="M61.9478 68.2871C62.031 68.1271 62.1107 67.9859 62.1786 67.8397C62.2214 67.7462 62.2874 67.7275 62.3804 67.7299C62.9381 67.7457 63.4957 67.7629 64.0539 67.7683C64.5278 67.7733 65.0028 67.7644 65.4773 67.759C66.0118 67.7526 66.5463 67.7245 67.0803 67.7398C67.7915 67.7605 68.4845 67.8997 69.1278 68.2162C69.8961 68.5947 70.4774 69.1711 70.8736 69.9305C71.1266 70.4153 71.2733 70.9296 71.3318 71.476C71.4165 72.2674 71.3609 73.0406 71.1099 73.7976C70.7988 74.7357 70.2082 75.4538 69.3877 75.9918C68.7562 76.4057 68.0637 76.6503 67.3215 76.7901C66.536 76.9383 65.748 76.8905 64.96 76.893C64.0957 76.8964 63.2319 76.8777 62.3676 76.8679C62.2165 76.8664 62.1949 76.8379 62.2347 76.6937L62.2716 76.5608C62.3558 76.296 62.4011 76.2842 62.6698 76.2399C62.8559 76.2098 63.0488 76.1399 63.2048 76.0366C63.2954 75.9765 63.3328 75.82 63.3682 75.6994C63.3988 75.5941 63.4002 75.4784 63.4012 75.3672C63.4135 73.6815 63.4263 71.9962 63.4332 70.3115C63.4347 69.8857 63.4248 69.459 63.4012 69.0337C63.3845 68.736 63.2255 68.5322 62.8711 68.4618C62.5955 68.4072 62.3179 68.3649 62.0408 68.3161L61.9478 68.2871ZM69.8602 72.3688C69.8228 72.0331 69.8046 71.6945 69.7445 71.3638C69.6008 70.5699 69.2533 69.8783 68.643 69.3364C67.6562 68.4608 66.468 68.326 65.2228 68.4303C64.9393 68.4539 64.8783 68.5509 64.8738 68.8423C64.867 69.2557 64.8601 69.6692 64.8596 70.0826C64.8576 71.3938 64.8576 72.705 64.8596 74.0162C64.8601 74.3892 64.864 74.7623 64.8748 75.1344C64.8866 75.5154 65.0249 75.8377 65.398 75.9854C65.9862 76.2182 66.6049 76.2458 67.2221 76.1508C68.2079 75.9997 68.8975 75.4253 69.3601 74.5645C69.7263 73.8813 69.8297 73.1356 69.8602 72.3688ZM72.2567 76.8334C72.2448 76.6292 72.3285 76.4604 72.4319 76.3053C72.4599 76.2635 72.5564 76.2655 72.6228 76.2522L73.1869 76.1404C73.3862 76.0981 73.4911 75.9642 73.5191 75.7688C73.5378 75.6399 73.5555 75.5095 73.557 75.379C73.5693 74.3469 73.5811 73.3148 73.5861 72.2827C73.591 71.2491 73.587 70.2155 73.587 69.1819L73.5826 68.9845C73.5624 68.6523 73.402 68.48 73.0722 68.4313L72.3571 68.3225C72.269 68.3107 72.237 68.2684 72.269 68.1901C72.3241 68.0568 72.3768 67.9184 72.4545 67.7984C72.4836 67.7541 72.5815 67.7368 72.6475 67.7383C72.989 67.7432 73.3306 67.7688 73.6722 67.7683L76.6455 67.7506C77.2184 67.7501 77.7716 67.85 78.2855 68.1242C78.851 68.4254 79.1675 68.8915 79.258 69.5264C79.3525 70.1933 79.1502 70.7554 78.663 71.2018C78.4626 71.3859 78.2033 71.506 77.971 71.6556L77.8952 71.7029C78.1107 71.7821 78.316 71.8505 78.5158 71.9322C79.1005 72.1719 79.5656 72.5465 79.8117 73.1445C80.0061 73.6165 80.0061 74.1087 79.891 74.5979C79.7118 75.3638 79.2073 75.8732 78.5512 76.2586C77.9355 76.6203 77.2691 76.831 76.5594 76.8664C75.9047 76.8994 75.2472 76.8871 74.5911 76.8945L74.2111 76.8964C73.5792 76.8822 72.9467 76.8659 72.3142 76.8492L72.2567 76.8334ZM74.9819 73.8365H74.9883C74.9883 74.1604 74.9839 74.4842 74.9898 74.8081C74.9937 75.0178 74.9863 75.2333 75.0316 75.4351C75.0995 75.7368 75.2373 76.009 75.576 76.0956C76.0332 76.2133 76.5003 76.2369 76.963 76.1567C77.5423 76.0558 78.0044 75.7654 78.2579 75.2137C78.4459 74.8037 78.474 74.3691 78.4095 73.9251C78.3239 73.3404 78.0133 72.9161 77.497 72.638C77.1584 72.4554 76.7971 72.3437 76.4122 72.3289C75.981 72.3127 75.5494 72.3117 75.1182 72.2984C74.9972 72.295 74.9804 72.3565 74.9809 72.4559C74.9834 72.9156 74.9819 73.3758 74.9819 73.8365ZM75.8998 71.634C76.1356 71.6222 76.4024 71.6187 76.6676 71.5921C77.1756 71.5414 77.5334 71.286 77.7199 70.8002C77.8149 70.5536 77.811 70.2997 77.8135 70.0432C77.8208 69.3753 77.431 68.828 76.7966 68.6016C76.3069 68.4269 75.8019 68.4239 75.2939 68.4377C75.0882 68.4431 74.9962 68.5332 74.9932 68.7404L74.9627 71.442C74.9612 71.5493 75.0075 71.5956 75.1118 71.599L75.8998 71.634Z" fill="white"/>
<path fill-rule="evenodd" clip-rule="evenodd" d="M24.1891 76.3142L24.1532 76.7788C23.8185 76.7788 23.5099 76.7763 23.2013 76.7798C22.62 76.7857 22.0388 76.795 21.457 76.8034L21.4009 76.8069C21.3177 76.797 21.1666 76.797 21.1627 76.7724C21.1381 76.6341 21.1459 76.4889 21.1523 76.3457C21.1528 76.3294 21.2094 76.3088 21.2424 76.3009L21.6947 76.2C21.9768 76.1267 22.0762 76.0051 22.0895 75.7137C22.1047 75.3854 22.12 75.0566 22.1215 74.7284C22.1259 73.9202 22.121 73.113 22.1244 72.3048C22.1249 72.1158 22.0594 71.9751 21.8832 71.8983C21.6736 71.8057 21.4629 71.7152 21.2508 71.6295C21.1504 71.5892 21.0199 71.567 21.0318 71.4322C21.0436 71.2949 21.1701 71.2589 21.2892 71.2319C21.7823 71.1191 22.276 71.0094 22.7677 70.8893C22.9262 70.8504 23.0778 70.7849 23.2673 70.719C23.2771 70.8214 23.2953 70.9188 23.2934 71.0163L23.2643 71.4794C23.2638 71.5316 23.2909 71.6015 23.3298 71.6305C23.3534 71.6487 23.4326 71.6158 23.472 71.5852C23.8923 71.2653 24.3373 70.9892 24.8447 70.8283C25.6308 70.5787 26.3055 70.81 26.778 71.4878C26.9444 71.7265 26.9449 71.7265 27.1757 71.5597C27.5719 71.2717 27.9864 71.0178 28.45 70.8504C29.4678 70.4827 30.4458 70.9493 30.7997 71.9746C30.9287 72.3467 30.9779 72.7311 30.9769 73.1238L30.9675 75.7314C30.967 75.9465 31.0384 76.0691 31.2432 76.136C31.473 76.2113 31.7112 76.263 31.9701 76.3309L31.9101 76.7793C31.6158 76.7793 31.345 76.7773 31.0743 76.7798C30.4128 76.7857 29.7513 76.7891 29.0903 76.8044C28.9752 76.8074 28.9451 76.7788 28.9392 76.671C28.92 76.326 28.9171 76.3265 29.2419 76.2487L29.3512 76.2207C29.6687 76.134 29.7745 76.0366 29.7769 75.7147C29.7843 74.7904 29.8035 73.8636 29.7568 72.9412C29.708 71.9844 28.9486 71.475 28.0213 71.7201C27.7186 71.7998 27.4445 71.9396 27.1895 72.1207C27.1034 72.1823 27.0871 72.2531 27.094 72.3609C27.1201 72.7685 27.1364 73.1765 27.1398 73.5845C27.1457 74.2987 27.1368 75.0128 27.1398 75.7275C27.1408 76.0169 27.2397 76.1276 27.5257 76.1946L27.9504 76.2925L28.0292 76.3102C28.0351 76.4461 28.0405 76.5819 28.0341 76.7178C28.0302 76.8029 27.9642 76.8103 27.8904 76.8088C27.4774 76.7985 27.064 76.7847 26.6511 76.7857C26.1485 76.7867 25.6465 76.801 25.1445 76.8098H25.0263C25.0263 76.6656 25.0195 76.5278 25.0313 76.3905C25.0337 76.3575 25.0918 76.3112 25.1317 76.3009L25.6268 76.1961C25.837 76.1444 25.9374 76.0366 25.9492 75.823C26.0053 74.8337 26.0457 73.8439 25.9526 72.8551C25.9344 72.6631 25.8719 72.4682 25.7922 72.2915C25.5387 71.7314 24.9683 71.4976 24.3102 71.666C23.9977 71.7457 23.7156 71.8889 23.4489 72.0696C23.3229 72.1552 23.2628 72.2684 23.2628 72.4116C23.2628 73.3985 23.2663 74.3853 23.2692 75.3716L23.2746 75.7521C23.2806 76.0174 23.3933 76.1572 23.6566 76.2143C23.8259 76.2527 23.9972 76.2787 24.1891 76.3142Z" fill="white"/>
<path fill-rule="evenodd" clip-rule="evenodd" d="M53.9458 70.8201C54.0221 71.1912 54.0206 71.5249 53.7479 71.7779C53.4772 72.0294 53.1347 71.9447 52.8005 71.8886C52.8315 72.0648 52.8659 72.2144 52.8827 72.366C53.0043 73.4927 52.5194 74.3289 51.4745 74.8068C51.0798 74.9869 50.6609 75.0539 50.2332 75.0883C50.0206 75.1051 49.8346 75.2675 49.8144 75.4422C49.7937 75.6194 49.9049 75.8015 50.1274 75.8547C50.3897 75.9172 50.6634 75.9349 50.9326 75.9659C51.5105 76.0319 52.0947 76.0619 52.6656 76.1652C53.5289 76.3208 54.0108 77.0743 53.8587 77.9415C53.7233 78.7133 53.2764 79.2749 52.6533 79.7055C51.6035 80.433 50.4518 80.6456 49.2252 80.2745C48.5239 80.0619 48.0292 79.6007 47.8584 78.8546C47.7728 78.481 47.8638 78.1428 48.1449 77.8894C48.4791 77.5891 48.8428 77.3214 49.1928 77.0379L49.306 76.9242L49.176 76.8331C48.8192 76.6638 48.5337 76.432 48.423 76.0294C48.3851 75.8931 48.4244 75.8035 48.5401 75.7336C48.737 75.615 48.9329 75.4944 49.1273 75.3718C49.2188 75.3147 49.3094 75.2557 49.3945 75.1897C49.5107 75.1011 49.5004 75.0352 49.3616 74.984C49.0387 74.8649 48.7517 74.6921 48.5293 74.4263C48.1577 73.9829 48.0524 73.4548 48.0829 72.8971C48.1306 72.0259 48.6036 71.4521 49.3724 71.0829C50.2864 70.6444 51.2033 70.6168 52.135 71.0165C52.4796 71.1641 52.8428 71.1956 53.2124 71.17C53.4886 71.1503 53.7297 71.046 53.9458 70.8201ZM50.5778 77.0615C49.8917 77.0556 49.6766 77.1403 49.274 77.5503C48.8231 78.01 48.8256 78.6473 49.2754 79.109C49.617 79.459 50.0433 79.6229 50.5172 79.6721C51.0709 79.7292 51.6163 79.706 52.1193 79.4289C52.6558 79.1321 52.9225 78.5809 52.802 78.0257C52.702 77.5675 52.3644 77.3578 51.9534 77.2372C51.4859 77.1004 51.0025 77.0743 50.5778 77.0615ZM49.2302 72.6771C49.2553 72.8676 49.2656 73.0605 49.3079 73.2471C49.4177 73.7304 49.6278 74.1551 50.1087 74.3702C50.6733 74.6237 51.3943 74.5149 51.6414 73.7225C51.8107 73.1796 51.79 72.6407 51.5858 72.1111C51.4947 71.8748 51.348 71.675 51.1379 71.5283C50.6477 71.1863 49.7632 71.141 49.4029 71.897C49.2858 72.1426 49.24 72.4039 49.2302 72.6771Z" fill="white"/>
<path fill-rule="evenodd" clip-rule="evenodd" d="M42.3051 70.6985C42.3233 70.7826 42.3597 70.8781 42.3607 70.9741C42.3622 71.1567 42.3425 71.3393 42.3321 71.5219V71.6804L42.4867 71.5622C42.91 71.2138 43.3648 70.917 43.8943 70.757C44.8502 70.4691 45.805 70.9923 46.1166 71.9658C46.2347 72.336 46.2815 72.7164 46.2859 73.1033C46.2957 73.9626 46.3016 74.822 46.3105 75.6814C46.3135 75.99 46.3489 76.0451 46.6408 76.1342C46.8061 76.1849 46.9769 76.2203 47.1477 76.2469C47.2417 76.2617 47.2821 76.2986 47.2772 76.3906L47.2781 76.4753C47.2747 76.8311 47.2501 76.8474 46.9051 76.8464C46.0792 76.8449 45.2538 76.8498 44.4279 76.8567C44.1818 76.8587 44.1813 76.8661 44.1567 76.6229L44.1518 76.4831C44.167 76.2735 44.1719 76.2754 44.3782 76.2449C44.517 76.2242 44.6548 76.1923 44.7901 76.1568C44.9294 76.1209 44.9964 76.018 45.0151 75.8802C45.0244 75.8103 45.0367 75.7404 45.0362 75.6705C45.0244 74.7314 45.0397 73.7914 44.9885 72.8537C44.9471 72.0953 44.3683 71.6435 43.6069 71.6951C43.2333 71.7212 42.8957 71.8457 42.5876 72.0608C42.3843 72.2031 42.3435 72.4083 42.3445 72.6293C42.3484 73.5074 42.3568 74.3854 42.3661 75.264C42.3681 75.4564 42.3735 75.6489 42.3917 75.8398C42.4109 76.0485 42.4842 76.1327 42.689 76.178C42.8849 76.2213 43.0847 76.2464 43.2939 76.2813L43.3116 76.4428C43.3185 76.8193 43.2791 76.8474 42.9134 76.8459C42.0595 76.8424 41.2055 76.8478 40.3521 76.8572C40.2177 76.8592 40.1606 76.8168 40.1641 76.6859L40.1621 76.6298C40.1399 76.2907 40.1498 76.2779 40.4707 76.2228L40.6223 76.1923C40.9698 76.114 41.0589 76.0215 41.0638 75.6686C41.08 74.5508 41.0859 73.4335 41.0972 72.3158C41.0987 72.1553 41.0382 72.0308 40.8886 71.9644C40.6789 71.8718 40.4672 71.7837 40.2551 71.6966C40.138 71.6484 40.0041 71.6179 39.9997 71.4559C39.9967 71.3417 40.1188 71.2408 40.2856 71.2069C40.6208 71.139 40.9589 71.0824 41.2902 70.9992C41.62 70.917 41.9438 70.8067 42.3051 70.6985Z" fill="white"/>
<path fill-rule="evenodd" clip-rule="evenodd" d="M60.7695 73.6181C60.7537 74.662 60.4825 75.5061 59.7443 76.1396C58.8091 76.9433 57.3503 77.2165 56.1577 76.6155C55.6488 76.3591 55.2747 75.9658 55.0311 75.4554C54.6575 74.6704 54.564 73.845 54.7589 72.9994C54.9518 72.1632 55.4583 71.5573 56.2163 71.165C56.9959 70.7619 57.8169 70.6044 58.6826 70.8161C59.7777 71.0833 60.5647 71.9762 60.7213 73.1131C60.7493 73.3124 60.7601 73.5142 60.7695 73.6181ZM59.5011 74.1836L59.4588 74.1787C59.4588 74.0803 59.4642 73.9818 59.4578 73.8834C59.4219 73.2701 59.2841 72.6859 58.9287 72.1725C58.5916 71.6863 58.1324 71.3993 57.5348 71.3575C56.866 71.3102 56.3039 71.6843 56.1065 72.3674C55.8102 73.3932 55.9106 74.3928 56.4314 75.3324C56.6583 75.7419 56.9944 76.0441 57.4448 76.2031C58.3273 76.5136 59.1098 76.1115 59.3397 75.2079C59.4243 74.8742 59.449 74.5252 59.5011 74.1836Z" fill="white"/>
<path fill-rule="evenodd" clip-rule="evenodd" d="M39.0906 73.6988C39.0724 74.4479 38.8957 75.1405 38.433 75.7424C37.9374 76.3872 37.2562 76.7317 36.4815 76.8769C35.5656 77.0482 34.7052 76.8926 33.9694 76.2779C33.6199 75.9855 33.3812 75.611 33.2237 75.1847C32.9653 74.4858 32.9009 73.7697 33.0598 73.0398C33.2296 72.2587 33.6706 71.6617 34.3543 71.261C35.1447 70.7989 35.9977 70.5926 36.9087 70.8003C38.0801 71.0681 38.7564 71.8315 39.0064 72.9871C39.0566 73.2204 39.0635 73.4616 39.0906 73.6988ZM37.808 74.193L37.774 74.1881V74.0473C37.7548 73.3602 37.6204 72.7056 37.2104 72.1347C36.9068 71.7109 36.5002 71.4451 35.979 71.3708C35.1295 71.2497 34.5743 71.7537 34.3902 72.4383C34.15 73.3326 34.2253 74.2161 34.5969 75.0642C34.8287 75.5928 35.1949 76.0047 35.7575 76.2046C36.6346 76.5161 37.429 76.1037 37.651 75.2035C37.7327 74.8742 37.7573 74.5306 37.808 74.193Z" fill="white"/>
<path fill-rule="evenodd" clip-rule="evenodd" d="M59.5375 35.51C60.1415 37.2558 60.5756 39.038 60.7188 40.8847C60.896 43.1763 60.8153 45.4522 60.3319 47.7059L60.2699 47.8861C60.1183 47.8866 59.9638 47.8674 59.8156 47.8905C58.564 48.0874 57.3138 48.2911 56.0632 48.4939C54.7702 48.7036 53.4763 48.9049 52.1857 49.1283C51.7285 49.2071 51.1625 49.1131 50.9779 49.7451L50.8893 49.7751L50.9518 45.9961L50.8883 36.8778L51.4908 36.7744C52.4756 36.6135 53.4605 36.4496 54.4468 36.2926C55.6232 36.106 56.8005 35.9239 57.9778 35.7418C58.4976 35.6621 59.0178 35.5878 59.5375 35.51Z" fill="#439934"/>
<path fill-rule="evenodd" clip-rule="evenodd" d="M49.6461 60.792C49.0106 60.2457 48.3531 59.7235 47.7442 59.1486C44.4673 56.0577 42.0698 52.4189 40.8891 48.0321C40.5637 46.8252 40.3472 45.5982 40.2773 44.351C40.228 43.4779 40.1577 42.5973 40.2197 41.7286C40.3836 39.4188 40.7178 37.1311 41.395 34.9059L41.4324 34.8542C41.4984 34.9419 41.5929 35.0196 41.6264 35.1186C42.2879 37.0656 42.9439 39.0147 43.5971 40.9652C45.649 47.0935 47.6985 53.2232 49.7538 59.3504C49.7942 59.47 49.8981 59.568 49.9729 59.6758L49.6461 60.792Z" fill="#45A538"/>
<path fill-rule="evenodd" clip-rule="evenodd" d="M59.5375 35.5099C59.0173 35.5872 58.4971 35.662 57.9778 35.7417C56.8005 35.9238 55.6232 36.1059 54.4469 36.2925C53.461 36.449 52.4761 36.6129 51.4908 36.7743L50.8883 36.8777L50.8834 36.4849C50.8632 36.162 50.8298 35.8392 50.8253 35.5163L50.7579 29.3374C50.7422 28.0483 50.7185 26.7593 50.6924 25.4707C50.6762 24.6699 50.659 23.8687 50.623 23.0689C50.6034 22.6392 50.534 22.2115 50.5064 21.7818C50.4902 21.5347 50.5118 21.2857 50.5172 21.0376C50.8244 21.6327 51.1251 22.2321 51.4406 22.8228C51.9392 23.7564 52.734 24.4445 53.4502 25.1951C56.2783 28.1635 58.2859 31.6127 59.5375 35.5099Z" fill="#46A037"/>
<path fill-rule="evenodd" clip-rule="evenodd" d="M50.8898 49.7749L50.9784 49.7449C51.163 49.1129 51.729 49.2069 52.1862 49.1282C53.4768 48.9047 54.7707 48.7034 56.0637 48.4938C57.3143 48.2915 58.5645 48.0877 59.8161 47.8903C59.9643 47.8672 60.1188 47.8864 60.2704 47.8859C60.0366 48.7207 59.8526 49.5736 59.5558 50.3852C59.2186 51.3056 58.8111 52.2044 58.3785 53.0854C57.7317 54.402 56.926 55.6305 55.9899 56.7561C55.2683 57.6233 54.4641 58.4261 53.6584 59.218C53.2124 59.6556 52.6878 60.0124 52.1985 60.4062L52.0716 60.3196L51.6153 59.9297L51.1433 58.8942C50.818 57.6824 50.6477 56.449 50.6191 55.1949L50.628 54.9842L50.6924 54.0717C50.7136 53.7602 50.7422 53.4491 50.7554 53.1376C50.8027 52.0173 50.845 50.8961 50.8898 49.7749Z" fill="#409433"/>
<path fill-rule="evenodd" clip-rule="evenodd" d="M50.8898 49.7749C50.8455 50.8961 50.8032 52.0178 50.7554 53.139C50.7422 53.4511 50.7141 53.7621 50.6924 54.0732L50.405 54.182C49.7661 52.3013 49.1268 50.4404 48.5017 48.575C47.4676 45.4885 46.4463 42.3975 45.4137 39.31C44.5805 36.8186 43.7398 34.3286 42.8947 31.8406C42.8549 31.7245 42.7416 31.6329 42.6629 31.53L44.5037 28.1453C44.5672 28.255 44.6504 28.3579 44.6902 28.476C45.5417 30.996 46.3917 33.5165 47.2343 36.0395C48.3309 39.3223 49.4201 42.6067 50.5157 45.8901C50.5596 46.021 50.6314 46.1421 50.7003 46.2893L50.9523 45.9959C50.9312 47.2559 50.9105 48.5149 50.8898 49.7749Z" fill="#4FAA41"/>
<path fill-rule="evenodd" clip-rule="evenodd" d="M42.6624 31.53C42.7416 31.6329 42.8549 31.7244 42.8942 31.8406C43.7393 34.3286 44.58 36.8181 45.4132 39.31C46.4459 42.3975 47.4671 45.4885 48.5012 48.575C49.1263 50.4404 49.7657 52.3008 50.4045 54.182L50.692 54.0732L50.6275 54.9857L50.5689 55.1959C50.469 56.1945 50.3848 57.1951 50.2628 58.1918C50.2017 58.6914 50.0713 59.1816 49.9724 59.6758C49.8981 59.568 49.7937 59.47 49.7534 59.3504C47.6975 53.2232 45.6485 47.0935 43.5966 40.9653C42.9434 39.0147 42.2869 37.0657 41.6259 35.1186C41.5924 35.0196 41.4979 34.9419 41.4319 34.8543L42.6624 31.53Z" fill="#4AA73C"/>
<path fill-rule="evenodd" clip-rule="evenodd" d="M50.9518 45.996L50.6998 46.2893C50.6309 46.1422 50.5591 46.0211 50.5153 45.8902C49.4196 42.6068 48.3304 39.3224 47.2338 36.0395C46.3912 33.5166 45.5412 30.9961 44.6897 28.4761C44.6499 28.358 44.5667 28.2551 44.5032 28.1453L46.7796 25.1509C46.8514 25.2464 46.9538 25.3315 46.9907 25.4393C47.6227 27.2899 48.2487 29.142 48.8718 30.9956C49.4536 32.7271 50.0265 34.4606 50.6152 36.1892C50.6545 36.3048 50.7919 36.3865 50.8834 36.485L50.8883 36.8777L50.9518 45.996Z" fill="#57AE47"/>
<path fill-rule="evenodd" clip-rule="evenodd" d="M50.8834 36.4849C50.7914 36.387 50.6545 36.3053 50.6152 36.1891C50.027 34.4605 49.4536 32.727 48.8718 30.9955C48.2487 29.142 47.6227 27.2899 46.9907 25.4392C46.9538 25.3314 46.8514 25.2463 46.7796 25.1508C47.5198 24.4258 48.2369 23.6747 49.0072 22.9832C49.6918 22.369 50.2421 21.7104 50.2677 20.7393L50.3218 20.5459L50.5167 21.0371C50.5118 21.2852 50.4897 21.5342 50.5059 21.7813C50.534 22.211 50.6034 22.6387 50.6226 23.0684C50.6585 23.8682 50.6757 24.6694 50.692 25.4702C50.718 26.7588 50.7417 28.0478 50.7574 29.3369L50.8248 35.5158C50.8298 35.8391 50.8637 36.162 50.8834 36.4849Z" fill="#60B24F"/>
<path fill-rule="evenodd" clip-rule="evenodd" d="M49.9729 59.6755C50.0718 59.1813 50.2022 58.6911 50.2633 58.1915C50.3853 57.1953 50.4695 56.1942 50.5694 55.1956L50.5945 55.1917L50.6191 55.1961C50.6477 56.4502 50.818 57.6836 51.1433 58.8954C51.0768 58.983 50.9838 59.0602 50.9484 59.1587C50.6752 59.9295 50.4173 60.7066 50.1427 61.4769C50.1053 61.5822 49.9999 61.6644 49.9266 61.7564L49.6456 60.7918L49.9729 59.6755Z" fill="#A9AA88"/>
<path fill-rule="evenodd" clip-rule="evenodd" d="M49.9266 61.7568C49.9999 61.6643 50.1053 61.5826 50.1427 61.4773C50.4173 60.707 50.6752 59.9298 50.9484 59.1591C50.9833 59.0606 51.0768 58.9834 51.1433 58.8958L51.6153 59.9313C51.5223 60.0632 51.3933 60.1828 51.3416 60.33L50.438 62.9839C50.4006 63.0907 50.2741 63.1655 50.1884 63.2555L49.9266 61.7568Z" fill="#B6B598"/>
<path fill-rule="evenodd" clip-rule="evenodd" d="M50.1884 63.2551C50.2736 63.1651 50.4006 63.0903 50.438 62.9835L51.3416 60.3296C51.3928 60.1824 51.5223 60.0628 51.6153 59.9309L52.072 60.3202C51.8515 60.5383 51.729 60.7903 51.8028 61.1087L51.664 61.563C51.601 61.6408 51.5095 61.7087 51.4785 61.7978C51.163 62.7014 50.8622 63.61 50.5443 64.5132C50.5039 64.6274 50.3922 64.7174 50.314 64.8188L50.1884 63.2551Z" fill="#C2C1A7"/>
<path fill-rule="evenodd" clip-rule="evenodd" d="M50.3135 64.8183C50.3922 64.7169 50.5039 64.6269 50.5438 64.5127C50.8618 63.6095 51.163 62.7009 51.478 61.7973C51.509 61.7082 51.6005 61.6408 51.6635 61.5625L51.4721 63.6474C51.4209 63.7065 51.3471 63.7581 51.3224 63.8266L50.6856 65.6516C50.6408 65.7761 50.5551 65.8874 50.4882 66.004C50.4286 65.9262 50.3223 65.8509 50.3174 65.7702C50.2987 65.4542 50.312 65.1358 50.3135 64.8183Z" fill="#CECDB7"/>
<path fill-rule="evenodd" clip-rule="evenodd" d="M50.4887 66.0043C50.5556 65.8877 50.6413 65.7764 50.686 65.6519L51.3229 63.8269C51.3475 63.758 51.4219 63.7068 51.4726 63.6477L51.4775 65.016L51.0193 66.1908L50.4887 66.0043Z" fill="#DBDAC7"/>
<path fill-rule="evenodd" clip-rule="evenodd" d="M51.0193 66.191L51.4775 65.0161L51.572 66.4061L51.0193 66.191Z" fill="#EBE9DC"/>
<path fill-rule="evenodd" clip-rule="evenodd" d="M51.8023 61.1086C51.729 60.7906 51.851 60.5386 52.0715 60.3201L52.1985 60.4067L51.8023 61.1086Z" fill="#CECDB7"/>
<path fill-rule="evenodd" clip-rule="evenodd" d="M50.6191 55.1965L50.5945 55.1921L50.5694 55.196L50.628 54.9858L50.6191 55.1965Z" fill="#4FAA41"/>
</svg>
