<svg width="101" height="101" viewBox="0 0 101 101" fill="none" xmlns="http://www.w3.org/2000/svg">
<circle cx="50.8096" cy="50.9238" r="50.0762" fill="#251C31"/>
<path d="M60.9786 58.2544C61.2798 55.7468 61.1898 55.3789 63.0574 55.7849L63.5316 55.8268C64.968 55.8921 66.847 55.5957 67.9503 55.0829C70.3264 53.9806 71.7351 52.1392 69.3924 52.6229C64.0477 53.7252 63.6803 51.9162 63.6803 51.9162C69.3242 43.5425 71.6837 32.9132 69.6473 30.3112C64.0935 23.2142 54.4793 26.5702 54.3182 26.6574L54.2667 26.6674C53.2107 26.4477 52.0293 26.3171 50.7016 26.2957C48.283 26.2561 46.4478 26.93 45.0557 27.9856C45.0557 27.9856 27.9047 20.9196 28.7025 36.8716C28.8722 40.2652 33.5668 62.5497 39.1659 55.8187C41.2123 53.3578 43.19 51.2766 43.19 51.2766C44.1722 51.929 45.3479 52.2617 46.5812 52.1421L46.6765 52.061C46.647 52.3665 46.6599 52.6653 46.7151 53.0189C45.2726 54.6311 45.6967 54.9142 42.8126 55.5075C39.895 56.109 41.6092 57.1793 42.7277 57.4591C44.085 57.7989 47.2231 58.2797 49.3443 55.3102L49.26 55.6491C49.8261 56.1018 49.7875 58.9026 49.8676 60.9037C49.9477 62.9047 50.082 64.7719 50.49 65.8737C50.8979 66.9746 51.3792 69.8106 55.1693 68.9985C58.3366 68.319 60.758 67.342 60.9786 58.2544Z" fill="black"/>
<path d="M53.9351 70.9764C52.2585 70.9764 51.1672 70.3283 50.5038 69.7021C49.503 68.758 49.1061 67.5413 48.8692 66.8146L48.7667 66.511C48.2892 65.2219 48.1277 63.3662 48.0319 60.9767C48.0176 60.6183 48.0071 60.248 47.9961 59.8558C47.988 59.5694 47.978 59.2101 47.9637 58.8331C47.368 59.1186 46.7304 59.3201 46.0589 59.4355C44.877 59.6375 43.6065 59.5718 42.2817 59.2406C41.3471 59.007 40.3759 58.5229 39.8226 57.7747C38.2095 59.1877 36.6706 58.9956 35.8324 58.7163C34.3536 58.2231 33.0302 56.8377 31.7859 54.4797C30.8999 52.8008 30.0426 50.6124 29.2377 47.9765C27.8366 43.3858 26.9464 38.5506 26.8673 36.9636C26.6185 31.9945 27.9557 28.4413 30.8418 26.403C35.3954 23.1867 42.2936 25.0777 44.8084 25.9365C46.4978 24.9181 48.4856 24.422 50.7321 24.4582C51.9387 24.4777 53.0873 24.584 54.1543 24.7737C55.2671 24.4239 57.4659 23.9216 59.9826 23.9525C64.6196 24.0078 68.4621 25.8149 71.0942 29.1785C72.9723 31.5785 72.044 36.6177 71.3229 39.4084C70.3093 43.3329 68.5322 47.5081 66.3495 51.1423C66.9424 51.1466 67.8006 51.0751 69.0216 50.8235C71.4301 50.326 72.134 51.6175 72.3251 52.1955C73.091 54.515 69.7622 56.2673 68.7237 56.7491C67.3932 57.3672 65.2243 57.7432 63.4477 57.6617L63.37 57.6565L62.9035 57.6155L62.8573 58.0044L62.8129 58.3851C62.6938 62.9906 62.0357 65.9072 60.6818 67.8349C59.263 69.855 57.2905 70.4217 55.5535 70.7939C54.9621 70.9211 54.4235 70.9764 53.9351 70.9764ZM50.4075 54.2138C51.4898 55.0797 51.5847 56.7091 51.669 59.7543C51.6795 60.1341 51.6895 60.4939 51.7028 60.8299C51.7438 61.8469 51.8396 64.2287 52.2123 65.2352C52.2652 65.3773 52.3124 65.5221 52.3619 65.6746C52.7775 66.948 52.9862 67.5861 54.7833 67.2011C56.2926 66.8779 57.068 66.5877 57.6751 65.7232C58.5577 64.4661 59.0514 61.9389 59.142 58.2093L60.9777 58.2541L59.1544 58.0353L59.2077 57.5802C59.3826 56.08 59.5085 54.9953 60.5116 54.2786C61.3161 53.7034 62.2334 53.7591 62.964 53.8907C62.1615 53.285 61.9394 52.573 61.8803 52.2813L61.7273 51.5274L62.1572 50.8888C64.6353 47.2116 66.6793 42.6924 67.7649 38.4896C68.8801 34.171 68.5398 31.8773 68.2 31.4436C63.6984 25.691 55.8909 28.0657 55.076 28.336L54.9377 28.4103L54.2467 28.5395L53.8926 28.4661C52.9171 28.2635 51.8334 28.1515 50.6711 28.1325C48.8454 28.102 47.3728 28.5333 46.1652 29.4497L45.3274 30.0849L44.3547 29.6842C42.2779 28.8349 36.176 27.1274 32.9563 29.4077C31.1692 30.6735 30.3552 33.154 30.5363 36.7802C30.5959 37.9773 31.4099 42.5089 32.7509 46.9047C34.6052 52.979 36.2903 54.9963 36.9937 55.2312C37.1162 55.2727 37.435 55.0249 37.752 54.6446C39.8136 52.165 41.7741 50.0982 41.8566 50.011L42.9198 48.8925L44.2051 49.7465C44.7231 50.091 45.2945 50.286 45.8816 50.3226L48.9474 47.7082L48.5032 52.2403C48.4932 52.3423 48.4884 52.4805 48.5285 52.7379L48.6619 53.5971L48.0838 54.2443L48.0171 54.3191L49.7013 55.0968L50.4075 54.2138Z" fill="black"/>
<path d="M69.3938 52.6229C64.0487 53.7252 63.6812 51.9157 63.6812 51.9157C69.3247 43.542 71.6837 32.9123 69.6478 30.3107C64.0935 23.2137 54.4793 26.5702 54.3187 26.6574L54.2668 26.6664C53.2107 26.4477 52.0293 26.3171 50.7011 26.2957C48.2826 26.2561 46.4478 26.9295 45.0558 27.9851C45.0558 27.9851 27.9043 20.9196 28.702 36.8716C28.8717 40.2652 33.5663 62.5497 39.1654 55.8187C41.2118 53.3578 43.1891 51.2766 43.1891 51.2766C44.1713 51.929 45.3469 52.2617 46.5798 52.142L46.6756 52.061C46.646 52.3665 46.6594 52.6653 46.7137 53.0189C45.2716 54.6311 45.6948 54.9142 42.8116 55.5075C39.8936 56.1089 41.6078 57.1793 42.7273 57.4591C44.084 57.7988 47.2227 58.2797 49.3434 55.3102L49.2586 55.6491C49.8238 56.1018 50.2207 58.5938 50.154 60.8527C50.0873 63.1116 50.043 64.6623 50.4886 65.8737C50.9342 67.0847 51.3778 69.8106 55.1684 68.9985C58.3356 68.3194 59.9769 66.5604 60.2057 63.6267C60.3677 61.5408 60.7342 61.8491 60.7575 59.9839L61.0521 59.1008C61.3909 56.2729 61.1059 55.3607 63.0574 55.7854L63.5316 55.8268C64.968 55.8926 66.8475 55.5957 67.9508 55.0829C70.3269 53.9801 71.7361 52.1392 69.3938 52.6229Z" fill="#336791"/>
<path d="M54.1266 69.844C50.9666 69.8445 49.9658 67.3421 49.5559 66.3189C48.9569 64.8196 48.8273 58.9998 48.9607 54.2271C48.9702 53.8887 49.25 53.6214 49.5902 53.6318C49.9281 53.6414 50.1945 53.923 50.1855 54.2614C50.0315 59.7662 50.2503 64.7543 50.6935 65.8638C51.3859 67.5947 52.4358 69.1087 55.4053 68.473C58.2241 67.8682 59.2797 66.7993 59.7496 64.0743C60.1108 61.9827 60.8238 56.0328 60.9115 54.8585C60.9367 54.5211 61.2293 54.2676 61.5677 54.2933C61.9051 54.3186 62.1581 54.6126 62.1329 54.9495C62.0414 56.1714 61.3313 62.1104 60.9563 64.2825C60.4011 67.5017 58.9661 68.9619 55.6616 69.6706C55.1007 69.7902 54.5903 69.844 54.1266 69.844ZM36.9937 57.6226C36.6921 57.6231 36.4185 57.5678 36.1817 57.4887C34.1291 56.8038 32.1743 53.4612 30.371 47.5528C28.9985 43.055 28.1287 38.3609 28.0525 36.8354C27.8261 32.3128 28.9913 29.1127 31.5147 27.3246C36.5072 23.7871 44.9061 27.1559 45.2612 27.3008C45.5743 27.429 45.7244 27.7864 45.5962 28.0995C45.4685 28.4122 45.1106 28.5628 44.7979 28.4346V28.435C44.7169 28.4017 36.663 25.1753 32.2205 28.3259C30.0626 29.8561 29.0718 32.6984 29.2753 36.7749C29.3397 38.0597 30.1522 42.6418 31.5423 47.1959C33.1522 52.47 34.9846 55.7988 36.5691 56.3268C36.8174 56.4102 37.5742 56.6623 38.6569 55.3613C40.6928 52.9118 42.5633 50.9569 42.5819 50.9374C42.8159 50.6929 43.2038 50.6853 43.4478 50.9188C43.6918 51.1528 43.7004 51.5407 43.4664 51.7847C43.4478 51.8038 41.6059 53.7295 39.5986 56.1443C38.6479 57.2871 37.7362 57.6226 36.9937 57.6226ZM63.6431 52.4619C63.5254 52.4619 63.4063 52.428 63.3014 52.357C63.0207 52.1683 62.9464 51.7875 63.1356 51.5069C68.8405 43.0412 70.843 32.8127 69.1279 30.6215C66.969 27.8632 63.9205 26.422 60.0675 26.3396C57.2143 26.2776 54.9463 27.0063 54.576 27.1335L54.4831 27.1712C54.1104 27.2884 53.8245 27.084 53.7168 26.8452C53.5891 26.5626 53.6939 26.2285 53.9589 26.0679L54.1238 26.0003L54.1157 26.0027L54.1243 25.9998C54.7538 25.7696 57.0561 25.0786 59.9083 25.1115C64.1721 25.1563 67.6939 26.8009 70.0929 29.8662C71.2281 31.3168 71.2305 34.6589 70.1001 39.0352C68.9477 43.4968 66.7794 48.2924 64.1516 52.1917C64.0334 52.3675 63.8399 52.4619 63.6431 52.4619ZM63.9343 56.3807C62.9602 56.3807 62.0871 56.2439 61.5644 55.9303C61.0268 55.6086 60.9243 55.1707 60.911 54.9386C60.7642 52.3632 62.1853 51.9148 62.9102 51.7103C62.8091 51.5578 62.6652 51.3782 62.517 51.1928C62.0943 50.6648 61.5157 49.9413 61.0697 48.8595C61.0001 48.6908 60.7809 48.2977 60.5274 47.843C59.1534 45.3797 56.295 40.2533 58.1312 37.6279C58.9814 36.4132 60.6732 35.9352 63.1666 36.202C62.4331 33.9674 58.9399 26.9768 50.6525 26.8409C48.1596 26.799 46.1152 27.5658 44.5792 29.1165C41.1398 32.5902 41.2647 38.8751 41.2661 38.9375C41.2752 39.2759 41.0078 39.557 40.6699 39.5656C40.3316 39.5761 40.0504 39.3078 40.0418 38.9694C40.0342 38.6907 39.9055 32.0955 43.709 28.2544C45.4889 26.4568 47.8317 25.5695 50.6725 25.6157C55.9757 25.7029 59.3884 28.3983 61.318 30.6449C63.4206 33.0925 64.4518 35.7927 64.5367 36.6934C64.6001 37.3634 64.1192 37.4978 64.022 37.5174L63.8013 37.5226C61.3542 37.1309 59.7844 37.4025 59.1353 38.3304C57.7385 40.3262 60.4425 45.1752 61.5972 47.2464C61.8922 47.7744 62.1048 48.1561 62.202 48.392C62.5813 49.3118 63.076 49.9299 63.4735 50.4265C63.8228 50.8635 64.1259 51.2419 64.2345 51.687C64.2846 51.7752 64.9985 52.8303 69.2327 51.9563C70.294 51.7375 70.9302 51.9248 71.1247 52.5129C71.5074 53.6704 69.3604 55.0201 68.1719 55.5724C67.1053 56.0676 65.4054 56.3807 63.9343 56.3807ZM62.1324 54.8375C62.2663 54.9734 62.9383 55.2069 64.3303 55.1473C65.5675 55.0939 66.8728 54.8247 67.6562 54.4615C68.658 53.9964 69.3261 53.4765 69.6726 53.1214L69.4801 53.1567C66.7727 53.7157 64.8579 53.6414 63.7889 52.9351C63.7122 52.8851 63.6441 52.8326 63.5816 52.7812C63.4658 52.8269 63.3586 52.857 63.2824 52.8784C62.6757 53.0485 62.0485 53.2244 62.1324 54.8375ZM44.644 58.2588C43.9716 58.2588 43.2639 58.1678 42.5409 57.9862C41.7923 57.7989 40.5294 57.2351 40.5489 56.3092C40.5703 55.2698 42.0815 54.9581 42.651 54.8409C44.706 54.4177 44.8399 54.248 45.4823 53.4326C45.6696 53.1948 45.9026 52.8989 46.22 52.5439C46.6918 52.0163 47.2074 51.7485 47.7526 51.7485C48.132 51.7485 48.4436 51.8776 48.649 51.9624C49.3048 52.2341 49.8519 52.8908 50.0768 53.6771C50.2798 54.3862 50.1831 55.0687 49.8042 55.5986C48.5613 57.3395 46.7771 58.2588 44.644 58.2588ZM41.8718 56.3621C42.0567 56.5046 42.4266 56.6952 42.8378 56.7986C43.464 56.9549 44.0712 57.0345 44.644 57.0345C46.3892 57.0345 47.7898 56.3116 48.8077 54.8871C49.0198 54.5897 48.9564 54.2128 48.8997 54.014C48.7806 53.5985 48.4851 53.2206 48.1806 53.0938C48.0152 53.0252 47.8784 52.9728 47.7526 52.9728C47.6849 52.9728 47.4795 52.9728 47.1331 53.3602C46.8405 53.6871 46.6303 53.954 46.444 54.1899C45.6443 55.2055 45.2778 55.55 42.8979 56.0404C42.3174 56.1605 42.0196 56.2815 41.8718 56.3621ZM46.5812 53.537C46.2839 53.537 46.0232 53.3202 45.9765 53.0176C45.9607 52.916 45.9507 52.8136 45.946 52.7107C44.3857 52.6811 42.8807 52.012 41.7384 50.8197C40.2939 49.3123 39.6363 47.224 39.9346 45.0904C40.2587 42.7734 40.1376 40.728 40.0723 39.629C40.0542 39.3235 40.0414 39.1029 40.0423 38.9499C40.0433 38.7564 40.0471 38.2422 41.7651 37.3715C42.376 37.0618 43.6013 36.5213 44.9395 36.3827C47.1574 36.1539 48.619 37.1414 49.0565 39.1639C50.2374 44.6253 49.1499 47.041 48.3559 48.8047C48.2077 49.1326 48.0681 49.4433 47.9566 49.7436L47.8579 50.009C47.4386 51.1337 47.0759 52.1054 47.1874 52.8317C47.2384 53.1662 47.0092 53.4784 46.6751 53.5303L46.5812 53.537ZM41.2709 39.1191L41.2952 39.5566C41.3629 40.6979 41.4887 42.8225 41.1475 45.2605C40.9016 47.02 41.4391 48.738 42.6224 49.9728C43.5574 50.9488 44.7889 51.4873 46.0541 51.4873H46.0804C46.2224 50.8902 46.4573 50.2602 46.7104 49.5811L46.8085 49.3175C46.9348 48.9782 47.0826 48.6499 47.2389 48.3024C48.0033 46.604 48.9545 44.4899 47.8589 39.4227C47.6416 38.4195 47.1155 37.8386 46.2505 37.647C44.4739 37.2543 41.8266 38.5906 41.2709 39.1191ZM44.9671 38.8594C44.9366 39.0757 45.3641 39.6538 45.9207 39.731C46.4769 39.8087 46.9529 39.3569 46.983 39.1405C47.013 38.9237 46.586 38.6854 46.0289 38.6077C45.4727 38.5301 44.9967 38.6425 44.9671 38.8594ZM46.0489 39.9445L45.8926 39.9335C45.5471 39.8854 45.1978 39.6676 44.959 39.3507C44.8751 39.2397 44.7379 39.0233 44.765 38.8308C44.8041 38.5482 45.1482 38.3795 45.6862 38.3795C45.8068 38.3795 45.9317 38.3885 46.058 38.4057C46.3515 38.4467 46.6246 38.5315 46.8262 38.644C47.1755 38.8393 47.2012 39.0567 47.1855 39.1696C47.1421 39.4808 46.6456 39.9445 46.0489 39.9445ZM45.1701 38.8956C45.1878 39.029 45.518 39.4698 45.9488 39.5294L46.0484 39.5366C46.4459 39.5366 46.7433 39.2235 46.778 39.121C46.7414 39.0514 46.4859 38.8775 46.0008 38.8108C45.8935 38.7955 45.7873 38.7879 45.6858 38.7879C45.375 38.7874 45.2087 38.8575 45.1701 38.8956ZM61.9075 38.4176C61.9375 38.6344 61.511 39.2125 60.9539 39.2897C60.3972 39.3669 59.9212 38.9156 59.8907 38.6988C59.8611 38.4824 60.2881 38.2436 60.8447 38.1664C61.4014 38.0883 61.877 38.2017 61.9075 38.4176ZM60.8257 39.4003C60.2895 39.4003 59.8278 38.9833 59.7896 38.7131C59.7458 38.3885 60.28 38.1417 60.8309 38.0654C60.952 38.0483 61.0721 38.0397 61.1879 38.0397C61.663 38.0397 61.9775 38.1793 62.009 38.4038C62.0295 38.5496 61.918 38.7741 61.7254 38.9761C61.5987 39.1096 61.3318 39.3407 60.9687 39.3907L60.8257 39.4003ZM61.1874 38.2436C61.0811 38.2436 60.9706 38.2517 60.8586 38.267C60.3048 38.3437 59.9755 38.5663 59.9912 38.6854C60.0098 38.816 60.3629 39.1963 60.8252 39.1963L60.9391 39.1882C61.2412 39.1458 61.4681 38.949 61.5763 38.8351C61.7459 38.6563 61.8136 38.4886 61.8055 38.4309C61.7955 38.3561 61.5915 38.2436 61.1874 38.2436ZM62.7095 50.8501C62.5923 50.8501 62.4741 50.8168 62.3693 50.7467C62.0881 50.558 62.0128 50.1782 62.201 49.897C63.5049 47.9493 63.2662 45.9625 63.0355 44.042C62.9369 43.2232 62.8353 42.3773 62.862 41.5648C62.8887 40.7294 62.9945 40.0403 63.0975 39.3731C63.219 38.5834 63.3338 37.8367 63.2862 36.9512C63.2676 36.6138 63.5268 36.3255 63.8647 36.3064C64.2036 36.2883 64.4909 36.5476 64.5095 36.8854C64.5638 37.8977 64.4337 38.7421 64.3079 39.5594C64.2107 40.1899 64.1101 40.8419 64.0858 41.6039C64.0625 42.323 64.1545 43.0869 64.2517 43.8952C64.4976 45.9382 64.7754 48.2538 63.219 50.578C63.1008 50.7544 62.9068 50.8501 62.7095 50.8501Z" fill="white"/>
<path d="M21.351 71.1735C21.8719 71.0868 22.5529 71.0125 23.4208 71.0125C24.4859 71.0125 25.267 71.2603 25.7626 71.7063C26.221 72.1028 26.4936 72.71 26.4936 73.4539C26.4936 74.2097 26.2701 74.8045 25.8488 75.2381C25.2789 75.8453 24.3496 76.155 23.2964 76.155C22.9742 76.155 22.6768 76.1426 22.4295 76.0807V79.4266H21.351V71.1735ZM22.4295 75.2005C22.6649 75.2624 22.9623 75.2872 23.3216 75.2872C24.6222 75.2872 25.4156 74.6553 25.4156 73.503C25.4156 72.4002 24.635 71.8674 23.4455 71.8674C22.9747 71.8674 22.6154 71.9046 22.4295 71.9541V75.2005ZM33.0235 76.3776C33.0235 78.5955 31.4866 79.5625 30.0369 79.5625C28.4137 79.5625 27.1622 78.373 27.1622 76.4767C27.1622 74.4694 28.4757 73.2923 30.136 73.2923C31.8588 73.2918 33.0235 74.5438 33.0235 76.3776ZM28.2655 76.4395C28.2655 77.753 29.0213 78.7442 30.0869 78.7442C31.1277 78.7442 31.9079 77.7653 31.9079 76.4148C31.9079 75.3987 31.4003 74.1101 30.1112 74.1101C28.8221 74.1101 28.2655 75.2996 28.2655 76.4395ZM34.2497 78.3105C34.5718 78.5212 35.1418 78.7442 35.687 78.7442C36.48 78.7442 36.8517 78.3477 36.8517 77.8521C36.8517 77.3317 36.5424 77.0467 35.7366 76.7493C34.6586 76.3652 34.1506 75.7705 34.1506 75.0518C34.1506 74.0853 34.9312 73.2923 36.2198 73.2923C36.8269 73.2923 37.3602 73.4658 37.6948 73.664L37.4222 74.457C37.1867 74.3084 36.7531 74.1101 36.1955 74.1101C35.5512 74.1101 35.1918 74.4818 35.1918 74.9279C35.1918 75.4235 35.5517 75.6465 36.3323 75.9439C37.3731 76.3404 37.9059 76.8608 37.9059 77.7529C37.9059 78.8062 37.0881 79.5496 35.6632 79.5496C35.0065 79.5496 34.3993 79.3885 33.978 79.1407L34.2497 78.3105ZM40.6189 71.7059V73.4281H42.1797V74.2583H40.6189V77.4923C40.6189 78.2357 40.8291 78.657 41.4367 78.657C41.7217 78.657 41.9323 78.6198 42.0686 78.5826L42.1182 79.4004C41.908 79.4872 41.573 79.5491 41.1522 79.5491C40.6442 79.5491 40.2348 79.388 39.9746 79.0907C39.6653 78.7685 39.5533 78.2357 39.5533 77.5294V74.2583H38.6241V73.4281H39.5533V71.9908L40.6189 71.7059ZM48.4994 73.4286C48.4741 73.8623 48.4498 74.3455 48.4498 75.0766V78.5583C48.4498 79.9337 48.1772 80.7763 47.5949 81.2971C47.0125 81.8423 46.1699 82.0158 45.4141 82.0158C44.6955 82.0158 43.9025 81.8423 43.4187 81.5202L43.6913 80.69C44.0878 80.9378 44.7074 81.1608 45.4508 81.1608C46.566 81.1608 47.3837 80.5785 47.3837 79.0668V78.3977H47.359C47.0244 78.9553 46.3801 79.4014 45.4508 79.4014C43.9639 79.4014 42.8983 78.1375 42.8983 76.4767C42.8983 74.4447 44.2241 73.2923 45.5995 73.2923C46.6408 73.2923 47.2108 73.8375 47.471 74.3331H47.4957L47.5453 73.4286H48.4994ZM47.3718 75.7952C47.3718 75.6094 47.3594 75.4483 47.3099 75.2996C47.1116 74.6677 46.5788 74.1473 45.7858 74.1473C44.7445 74.1473 44.0016 75.027 44.0016 76.4148C44.0016 77.5919 44.5963 78.5707 45.7734 78.5707C46.4425 78.5707 47.0497 78.1494 47.2851 77.4556C47.3471 77.2697 47.3723 77.0591 47.3723 76.8732L47.3718 75.7952ZM50.184 75.2996C50.184 74.5933 50.1716 73.9862 50.1345 73.4286H51.089L51.1257 74.6057H51.1753C51.4479 73.8003 52.1046 73.2923 52.8356 73.2923C52.9595 73.2923 53.0458 73.3047 53.1449 73.3295V74.3579C53.0339 74.3331 52.9219 74.3207 52.7737 74.3207C52.0055 74.3207 51.4598 74.9031 51.3116 75.7209C51.2868 75.8696 51.262 76.043 51.262 76.2289V79.4257H50.184V75.2996ZM54.7195 76.6254C54.7443 78.0999 55.6855 78.707 56.7758 78.707C57.5569 78.707 58.0273 78.5707 58.4362 78.3973L58.622 79.1779C58.2379 79.3513 57.5812 79.5496 56.6272 79.5496C54.781 79.5496 53.6782 78.3353 53.6782 76.5263C53.6782 74.7172 54.7438 73.2918 56.4909 73.2918C58.4486 73.2918 58.969 75.0141 58.969 76.1169C58.969 76.3399 58.9442 76.5134 58.9318 76.6249L54.7195 76.6254ZM57.9163 75.8448C57.9282 75.1509 57.6308 74.0729 56.4046 74.0729C55.3018 74.0729 54.8186 75.089 54.7314 75.8448H57.9163Z" fill="white"/>
<path d="M60.2081 78.1124C60.6913 78.4098 61.3976 78.6576 62.141 78.6576C63.2438 78.6576 63.8881 78.0752 63.8881 77.2327C63.8881 76.4521 63.442 76.006 62.3145 75.5723C60.9515 75.0891 60.1089 74.3828 60.1089 73.2057C60.1089 71.9047 61.1869 70.9382 62.8101 70.9382C63.6651 70.9382 64.2846 71.1365 64.6563 71.3471L64.3589 72.2269C64.0863 72.0782 63.5288 71.8304 62.7729 71.8304C61.633 71.8304 61.1993 72.5118 61.1993 73.0818C61.1993 73.8624 61.7069 74.2465 62.8597 74.6926C64.2722 75.2383 64.9908 75.9193 64.9908 77.1459C64.9908 78.4346 64.0368 79.5497 62.0667 79.5497C61.2613 79.5497 60.3815 79.3143 59.935 79.0169L60.2081 78.1124ZM73.3545 80.6525C72.227 80.3551 71.1242 80.0206 70.1577 79.686C69.9843 79.6241 69.8108 79.5621 69.6497 79.5621C67.6672 79.4878 65.9697 78.0257 65.9697 75.3369C65.9697 72.6605 67.6053 70.9382 69.8604 70.9382C72.1279 70.9382 73.6028 72.6977 73.6028 75.1634C73.6028 77.307 72.6116 78.6824 71.2238 79.1656V79.2152C72.054 79.4258 72.9585 79.6241 73.6648 79.748L73.3545 80.6525ZM72.4624 75.213C72.4624 73.5403 71.5955 71.8175 69.8232 71.8175C68.0018 71.8175 67.1096 73.5026 67.122 75.3121C67.1096 77.084 68.0885 78.6824 69.7736 78.6824C71.4964 78.6824 72.4624 77.1212 72.4624 75.213ZM75.002 71.0745H76.0805V78.5213H79.649V79.4258H75.002V71.0745Z" fill="#336791"/>
</svg>
