<svg width="101" height="101" viewBox="0 0 101 101" fill="none" xmlns="http://www.w3.org/2000/svg">
<circle cx="50.0762" cy="50.0762" r="50.0762" fill="#251C31"/>
<path d="M68.6458 43.5675C66.5522 42.9002 64.7042 41.7005 63.3137 40.1058C61.7813 38.3291 59.8299 36.9002 57.609 35.9286C55.388 34.957 52.9564 34.4683 50.5 34.5C47.1957 34.2834 43.9245 35.2265 41.3378 37.1414C38.7511 39.0564 37.0387 41.8026 36.5417 44.8333C37.5206 43.3175 38.994 42.1282 40.7498 41.4365C42.5056 40.7448 44.4532 40.5864 46.3125 40.9841C48.4026 41.6708 50.2476 42.8775 51.6446 44.4716C53.1855 46.2342 55.1405 47.6482 57.361 48.6062C59.5814 49.5642 62.0088 50.0409 64.4583 50C67.7626 50.2165 71.0339 49.2734 73.6206 47.3585C76.2073 45.4436 77.9196 42.6973 78.4167 39.6666C77.4555 41.2005 75.9868 42.4078 74.2274 43.1102C72.468 43.8126 70.5112 43.9729 68.6458 43.5675ZM32.3542 56.4325C34.4478 57.0997 36.2958 58.2995 37.6862 59.8941C39.2187 61.6709 41.1701 63.0997 43.391 64.0713C45.6119 65.0429 48.0436 65.5316 50.5 65.5C53.8043 65.7165 57.0755 64.7734 59.6622 62.8585C62.2489 60.9436 63.9613 58.1973 64.4583 55.1666C63.4794 56.6824 62.006 57.8717 60.2502 58.5634C58.4944 59.2551 56.5467 59.4135 54.6875 59.0158C52.5974 58.3291 50.7524 57.1224 49.3554 55.5283C47.8104 53.7701 45.8545 52.3592 43.635 51.4016C41.4155 50.444 38.9902 49.9648 36.5417 50C33.2374 49.7834 29.9661 50.7265 27.3794 52.6414C24.7927 54.5564 23.0804 57.3026 22.5833 60.3333C23.5445 58.7994 25.0132 57.5921 26.7726 56.8897C28.532 56.1873 30.4888 56.027 32.3542 56.4325Z" fill="#146EF5"/>
</svg>
