<svg width="20" height="17" viewBox="0 0 20 17" fill="none" xmlns="http://www.w3.org/2000/svg">
<path d="M13.36 0.439941H14.3L14.64 0.499942L14.78 0.539942C15.0067 0.593275 15.1667 0.639942 15.26 0.679942C15.46 0.759942 15.6467 0.843275 15.82 0.929942C15.9933 1.01661 16.1467 1.11328 16.28 1.21994C16.3733 1.28661 16.5 1.38661 16.66 1.51994C16.7667 1.62661 16.94 1.65994 17.18 1.61994L17.94 1.39994L18.12 1.33994C18.4 1.23328 18.6067 1.14661 18.74 1.07994C19.0067 0.959942 19.1667 0.879942 19.22 0.839942L19.32 0.799942V0.779942H19.34L19.36 0.759942H19.38L19.42 0.719942H19.44V0.779942L19.42 0.799942V0.839942H19.4V0.859941L19.38 0.899941C19.38 0.926608 19.3767 0.949942 19.37 0.969942C19.3633 0.989942 19.31 1.09994 19.21 1.29994C19.11 1.49994 18.9733 1.71994 18.8 1.95994C18.6933 2.09328 18.5467 2.25327 18.36 2.43994C18.2667 2.50661 18.1833 2.57661 18.11 2.64994C18.0367 2.72328 17.98 2.76661 17.94 2.77994L17.84 2.85994H17.82V2.87994H17.8L17.78 2.89994H17.76V2.91994H17.74V2.93994H17.72H17.82L18.32 2.81994C18.6667 2.75327 18.9867 2.67327 19.28 2.57994L19.78 2.41994L19.86 2.37994H19.88L19.9 2.35994H19.92L19.96 2.33994H20V2.37994H19.98V2.39994H19.96V2.41994H19.94V2.43994H19.92V2.45994C19.92 2.47328 19.84 2.57994 19.68 2.77994L19.56 2.93994C19.4933 3.03327 19.4533 3.07994 19.44 3.07994C19.4267 3.07994 19.42 3.08661 19.42 3.09994L19.4 3.11994C19.3733 3.15994 19.24 3.29327 19 3.51994C18.84 3.69328 18.6133 3.89994 18.32 4.13994C18.0933 4.32661 17.98 4.54661 17.98 4.79994C17.98 4.94661 17.9667 5.20661 17.94 5.57994V5.69994C17.9267 5.88661 17.8867 6.18661 17.82 6.59994L17.8 6.77994C17.7333 7.17994 17.6333 7.60994 17.5 8.06994C17.3667 8.52994 17.1933 9.00661 16.98 9.49994C16.82 9.91327 16.6133 10.3266 16.36 10.7399C16.1733 11.0866 15.98 11.3999 15.78 11.6799L15.22 12.3999C15.0467 12.6133 14.8133 12.8666 14.52 13.1599L14.04 13.6199L13.7 13.8999C13.58 13.9933 13.4 14.1333 13.16 14.3199L12.84 14.5399C12.6267 14.6866 12.4733 14.7866 12.38 14.8399L11.66 15.2199C11.3133 15.3933 11.0067 15.5266 10.74 15.6199C10.58 15.6866 10.32 15.7799 9.96 15.8999L9.72 15.9799C9.34667 16.0866 9 16.1666 8.68 16.2199C8.25333 16.2999 7.87333 16.3533 7.54 16.3799L6.9 16.4399H5.72L5.56 16.4199C5.44 16.4199 5.36 16.4133 5.32 16.3999L4.56 16.3199C4.14667 16.2533 3.80667 16.1933 3.54 16.1399C3.40667 16.1133 3.13333 16.0266 2.72 15.8799L2.44 15.7999C1.85333 15.5866 1.44 15.4199 1.2 15.2999C0.826667 15.1133 0.606667 15.0066 0.54 14.9799L0.42 14.8999C0.353333 14.8599 0.3 14.8266 0.26 14.7999L0.1 14.6999H0.08L0.06 14.6799H0.04V14.6599H0.02V14.6399H0V14.6199H0.12C0.146667 14.6333 0.22 14.6399 0.34 14.6399L0.56 14.6599H1.32C1.69333 14.6333 1.97333 14.6066 2.16 14.5799C2.4 14.5399 2.73333 14.4666 3.16 14.3599C3.56 14.2533 3.91333 14.1333 4.22 13.9999L4.9 13.6999C5.07333 13.6066 5.28 13.4799 5.52 13.3199L5.94 13.0399V13.0199H5.96L5.98 12.9999H6V12.9799L6.02 12.9599L5.88 12.9399C5.76 12.9399 5.66667 12.9333 5.6 12.9199C5.48 12.9199 5.34 12.8933 5.18 12.8399C5.07333 12.8133 4.9 12.7599 4.66 12.6799L4.56 12.6399C4.41333 12.5733 4.19333 12.4599 3.9 12.2999L3.76 12.1999C3.6 12.0933 3.49333 12.0133 3.44 11.9599L3.08 11.5999C3.01333 11.5333 2.91333 11.4133 2.78 11.2399L2.7 11.1199C2.60667 10.9733 2.50667 10.7799 2.4 10.5399L2.24 10.2199V10.1999L2.22 10.1799V10.1399H2.28L2.48 10.1799C2.56 10.1933 2.76667 10.1999 3.1 10.1999L3.4 10.1799C3.54667 10.1799 3.64 10.1733 3.68 10.1599L3.92 10.1199L3.96 10.0999H4V10.0799H4.02L3.98 10.0599H3.96L3.92 10.0399H3.84C3.82667 10.0266 3.80667 10.0199 3.78 10.0199L3.72 9.99994C3.62667 9.95994 3.46 9.89327 3.22 9.79994C2.94 9.66661 2.73333 9.55994 2.6 9.47994C2.49333 9.39994 2.34667 9.27994 2.16 9.11994C2.06667 9.03994 1.92 8.88661 1.72 8.65994L1.68 8.61994C1.48 8.36661 1.33333 8.13328 1.24 7.91994C1.10667 7.66661 1.00667 7.41327 0.94 7.15994C0.86 6.83994 0.813333 6.59328 0.8 6.41994L0.78 6.05994H0.82L0.84 6.07994H0.86L0.88 6.09994L1.16 6.21994C1.41333 6.32661 1.64667 6.39994 1.86 6.43994L2.36 6.53994H2.6H2.58V6.51994H2.56V6.49994H2.54L2.52 6.47994H2.5L2.32 6.33994C2.25333 6.28661 2.14667 6.18661 2 6.03994L1.68 5.67994C1.62667 5.61327 1.56 5.51994 1.48 5.39994L1.38 5.25994C1.31333 5.11327 1.22667 4.91994 1.12 4.67994C1.01333 4.38661 0.946667 4.15994 0.92 3.99994C0.866667 3.79994 0.84 3.57327 0.84 3.31994C0.826667 3.21327 0.826667 3.07327 0.84 2.89994V2.73994C0.866667 2.57994 0.906667 2.39994 0.96 2.19994L0.98 2.13994C1.06 1.88661 1.13333 1.69328 1.2 1.55994L1.34 1.21994L1.36 1.19994V1.15994H1.4V1.17994H1.42V1.19994L1.44 1.21994V1.23994L1.68 1.49994C1.78667 1.61994 1.98 1.81994 2.26 2.09994C2.46 2.29994 2.58667 2.41327 2.64 2.43994C2.65333 2.43994 2.66667 2.45327 2.68 2.47994L2.72 2.51994C2.76 2.55994 2.88 2.65994 3.08 2.81994C3.18667 2.91327 3.39333 3.06661 3.7 3.27994L3.88 3.39994C4.25333 3.63994 4.62 3.85994 4.98 4.05994C5.54 4.32661 5.97333 4.51994 6.28 4.63994L6.38 4.67994C6.86 4.83994 7.15333 4.93328 7.26 4.95994C7.48667 5.03994 7.80667 5.11327 8.22 5.17994C8.40667 5.21994 8.64667 5.25994 8.94 5.29994L9.24 5.33994L9.7 5.37994H9.82V5.31994L9.78 5.09994C9.75333 4.91327 9.74 4.70661 9.74 4.47994C9.74 4.18661 9.76333 3.93994 9.81 3.73994C9.85667 3.53994 9.92 3.31994 10 3.07994C10.08 2.83994 10.16 2.64661 10.24 2.49994C10.2933 2.40661 10.4 2.25661 10.56 2.04994C10.72 1.84328 10.8933 1.65328 11.08 1.47994C11.3467 1.26661 11.5867 1.09994 11.8 0.979941C12.04 0.846608 12.2867 0.733275 12.54 0.639942C12.7933 0.546608 12.9867 0.493275 13.12 0.479941L13.36 0.439941Z" fill="white"/>
</svg>
