<svg width="101" height="101" viewBox="0 0 101 101" fill="none" xmlns="http://www.w3.org/2000/svg">
<circle cx="50.0762" cy="50.0762" r="50.0762" fill="#251C31"/>
<g clip-path="url(#clip0_1_122)">
<mask id="mask0_1_122" style="mask-type:luminance" maskUnits="userSpaceOnUse" x="25" y="24" width="51" height="51">
<path d="M25.0005 24H76.0001V75H25.0005V24Z" fill="white"/>
</mask>
<g mask="url(#mask0_1_122)">
<path d="M28.6249 49.4994C28.6249 58.1587 33.6569 65.6411 40.9537 69.1876L30.5188 40.5967C29.2679 43.3979 28.6225 46.4316 28.6249 49.4994ZM65.2681 48.3955C65.2681 45.692 64.297 43.8197 63.464 42.3624C62.3552 40.5605 61.3162 39.0345 61.3162 37.2326C61.3162 35.2217 62.8409 33.3498 64.9892 33.3498C65.0862 33.3498 65.1782 33.3619 65.2731 33.3673C61.3807 29.8017 56.1955 27.6248 50.5004 27.6248C42.8581 27.6248 36.1344 31.5458 32.2229 37.4848C32.7362 37.5002 33.2203 37.5107 33.6307 37.5107C35.9188 37.5107 39.4607 37.233 39.4607 37.233C40.6399 37.1635 40.7789 38.8955 39.6014 39.035C39.6014 39.035 38.4159 39.1744 37.0972 39.2435L45.0634 62.9384L49.8511 48.5808L46.4424 39.2431C45.2644 39.174 44.1485 39.0345 44.1485 39.0345C42.9696 38.9654 43.1078 37.1631 44.2866 37.2326C44.2866 37.2326 47.8993 37.5102 50.0488 37.5102C52.3365 37.5102 55.8787 37.2326 55.8787 37.2326C57.0588 37.1631 57.1974 38.8951 56.019 39.0345C56.019 39.0345 54.8315 39.174 53.5153 39.2431L61.4207 62.7586L63.6022 55.4672C64.5484 52.4415 65.2681 50.2683 65.2681 48.3955Z" fill="#00749A"/>
<path d="M50.8842 51.4129L44.3208 70.4846C46.3274 71.076 48.4085 71.3762 50.5004 71.3762C53.0479 71.3762 55.4908 70.9354 57.7648 70.1362C57.7038 70.0407 57.6517 69.9398 57.6091 69.8348L50.8842 51.4129ZM69.6953 39.0042C69.7894 39.701 69.8427 40.4494 69.8427 41.2536C69.8427 43.4734 69.4281 45.9688 68.1793 49.089L61.4973 68.4083C68.0008 64.6159 72.3751 57.5701 72.3751 49.4994C72.3809 45.831 71.4591 42.2207 69.6953 39.0042Z" fill="#00749A"/>
<path d="M50.5007 24C36.4403 24 25.0005 35.4389 25.0005 49.4994C25.0005 63.5615 36.4399 75.0004 50.5007 75.0004C64.5608 75.0004 76.0022 63.5619 76.0022 49.4994C76.0018 35.4389 64.5608 24 50.5007 24ZM50.5007 73.8312C37.085 73.8312 26.1698 62.9159 26.1698 49.4994C26.1698 36.0841 37.0846 25.1697 50.5007 25.1697C63.916 25.1697 74.8304 36.0841 74.8304 49.4994C74.8304 62.9159 63.9156 73.8312 50.5007 73.8312Z" fill="#00749A"/>
</g>
</g>
<defs>
<clipPath id="clip0_1_122">
<rect width="51" height="51" fill="white" transform="translate(25 24)"/>
</clipPath>
</defs>
</svg>
